<svg width="19" height="22" viewBox="0 0 19 22" fill="none" xmlns="http://www.w3.org/2000/svg">
<path d="M6.38659 6.71002C6.49909 6.24502 6.91909 5.90002 7.42159 5.90002C7.93909 5.90002 8.37409 6.26752 8.47159 6.76252C8.47729 6.78809 8.47709 6.81461 8.47102 6.84009C8.46494 6.86557 8.45314 6.88933 8.43652 6.90957C8.41989 6.92981 8.39888 6.94599 8.37507 6.9569C8.35125 6.96781 8.32527 6.97315 8.29909 6.97252H8.23909C8.25409 6.91252 8.26159 6.85252 8.26159 6.79252C8.26159 6.41752 7.96159 6.11002 7.57909 6.11002C7.47412 6.11022 7.3706 6.13455 7.27653 6.18112C7.18245 6.2277 7.10035 6.29528 7.03656 6.37865C6.97277 6.46201 6.929 6.55892 6.90863 6.6619C6.88826 6.76487 6.89184 6.87115 6.91909 6.97252H6.58909C6.45409 6.97252 6.34909 6.83752 6.38659 6.71002ZM12.1241 6.71002C12.0116 6.24502 11.5916 5.90002 11.0891 5.90002C10.5641 5.90002 10.1366 6.26752 10.0391 6.76252C10.0166 6.87502 10.0991 6.97252 10.2116 6.97252H10.2716C10.2568 6.91366 10.2493 6.85321 10.2491 6.79252C10.2481 6.70262 10.265 6.61342 10.299 6.53016C10.3329 6.4469 10.3832 6.37126 10.4467 6.30769C10.5103 6.24411 10.586 6.19387 10.6692 6.15993C10.7525 6.12599 10.8417 6.10902 10.9316 6.11002C11.0366 6.11022 11.1401 6.13455 11.2341 6.18112C11.3282 6.2277 11.4103 6.29528 11.4741 6.37865C11.5379 6.46201 11.5817 6.55892 11.602 6.6619C11.6224 6.76487 11.6188 6.87115 11.5916 6.97252H11.9216C12.0566 6.97252 12.1541 6.84502 12.1241 6.71002Z" fill="white"/>
<path d="M7.96747 6.78501C7.96747 6.56751 7.79497 6.39501 7.57747 6.39501C7.52493 6.39418 7.4728 6.4044 7.42447 6.42501C7.44275 6.44114 7.4557 6.46246 7.46157 6.48613C7.46743 6.5098 7.46595 6.53469 7.45732 6.5575C7.44869 6.5803 7.43331 6.59994 7.41324 6.61378C7.39317 6.62763 7.36935 6.63504 7.34497 6.63501C7.32498 6.63497 7.30532 6.62995 7.28777 6.62039C7.27022 6.61083 7.25533 6.59703 7.24447 6.58026C7.20936 6.63788 7.18979 6.70361 7.18769 6.77105C7.18559 6.83849 7.20101 6.90532 7.23247 6.96501H7.92247C7.95247 6.91251 7.96747 6.85251 7.96747 6.78501ZM10.7875 6.42126C10.8615 6.39054 10.9433 6.38358 11.0215 6.40134C11.0996 6.41909 11.1704 6.46069 11.2239 6.52038C11.2774 6.58008 11.3111 6.65492 11.3202 6.73457C11.3294 6.81421 11.3136 6.89474 11.275 6.96501H10.585C10.5522 6.90311 10.5368 6.83353 10.5402 6.76358C10.5436 6.69364 10.5658 6.62591 10.6045 6.56751C10.6124 6.58365 10.6238 6.59782 10.6379 6.60895C10.652 6.62009 10.6684 6.62792 10.686 6.63185C10.7035 6.63579 10.7217 6.63573 10.7392 6.63169C10.7567 6.62765 10.7731 6.61973 10.7872 6.6085C10.8012 6.59728 10.8126 6.58305 10.8204 6.56686C10.8282 6.55067 10.8322 6.53293 10.8323 6.51495C10.8323 6.49698 10.8283 6.47923 10.8205 6.46301C10.8128 6.44679 10.8015 6.43253 10.7875 6.42126ZM8.61997 8.01501L9.01747 6.73251C9.10747 6.44751 9.50497 6.44751 9.58747 6.73251L9.98497 8.01501C10.0675 8.27751 9.87247 8.54751 9.59497 8.54751H9.00997C8.73247 8.54751 8.53747 8.27751 8.61997 8.01501ZM9.24997 9.26001C8.84497 9.26001 8.46247 9.16251 8.13997 8.99001C8.02747 8.93001 7.91497 9.05751 7.98247 9.16251C8.25247 9.57501 8.71747 9.85251 9.24997 9.85251C9.78247 9.85251 10.2475 9.57501 10.5175 9.16251C10.585 9.05751 10.465 8.93751 10.36 8.99001C10.0375 9.16251 9.66247 9.26001 9.24997 9.26001Z" fill="white"/>
<path d="M18.6228 18.1303C18.6253 18.1528 18.6261 18.1755 18.6251 18.1985V20.8325C18.6251 21.105 18.5168 21.3664 18.3241 21.5591C18.1314 21.7518 17.8701 21.86 17.5976 21.86H17.5931C17.5604 21.8696 17.5266 21.8746 17.4926 21.875H1.00008C0.900627 21.875 0.805244 21.8355 0.734918 21.7652C0.664592 21.6949 0.625083 21.5995 0.625083 21.5V18.875C0.61782 17.2251 1.08688 15.608 1.97596 14.2181C2.86504 12.8281 4.13636 11.7243 5.63733 11.039C5.60208 10.9901 5.56832 10.94 5.53608 10.889C5.14569 10.7394 4.80909 10.4762 4.56967 10.1334C4.33025 9.79069 4.199 9.38408 4.19283 8.96603V8.43053C3.99598 8.26026 3.84219 8.04583 3.74405 7.80477C3.6459 7.5637 3.60618 7.30284 3.62812 7.04348C3.65006 6.78413 3.73305 6.53365 3.8703 6.3125C4.00755 6.09135 4.19517 5.90581 4.41783 5.77103V4.83428C4.29272 4.24715 4.29332 3.64019 4.41962 3.05332C4.54591 2.46645 4.79503 1.91296 5.15058 1.42928C5.56725 0.986173 6.07595 0.639765 6.64091 0.414431C7.20586 0.189097 7.81334 0.0903117 8.42058 0.125028H10.1103C10.7185 0.0899358 11.327 0.188522 11.893 0.413853C12.459 0.639183 12.9687 0.985785 13.3863 1.42928C13.7456 1.92302 13.9962 2.48733 14.1215 3.08498C14.2467 3.68264 14.2439 4.30006 14.1131 4.89653V5.77553C14.3328 5.91019 14.5179 6.09445 14.6536 6.31354C14.7893 6.53264 14.8718 6.78047 14.8945 7.03718C14.9172 7.2939 14.8794 7.55235 14.7842 7.79184C14.689 8.03133 14.5391 8.24518 14.3463 8.41628V8.96603C14.3458 9.35782 14.2332 9.74129 14.0219 10.0712C13.8106 10.4012 13.5094 10.6638 13.1538 10.8283C13.0998 10.9198 13.0411 11.0085 12.9776 11.0945C13.3606 11.282 13.7273 11.496 14.0778 11.7365C13.9563 11.9645 13.8693 12.209 13.8198 12.4633L13.8138 12.4588C13.7833 12.6153 13.7671 12.7753 13.7651 12.9388C13.762 13.2838 13.8273 13.6261 13.9573 13.9458C14.0874 14.2654 14.2795 14.5561 14.5226 14.801V17.39C14.6678 17.2753 14.8426 17.2043 15.0266 17.1853C15.0579 17.1769 15.0902 17.1726 15.1226 17.1725H15.6476V14.8145C15.6476 14.7395 15.6026 14.6645 15.5351 14.627C15.2548 14.4828 15.0152 14.2705 14.8383 14.0096C14.6614 13.7487 14.5528 13.4475 14.5226 13.1338V12.7963C14.5497 12.4885 14.653 12.1924 14.8232 11.9345C14.9934 11.6767 15.2252 11.4653 15.4976 11.3195C15.6401 11.2445 15.8201 11.3495 15.8201 11.5145V12.6845C15.8201 12.992 16.0601 13.2395 16.3676 13.247C16.6826 13.2545 16.9376 12.992 16.9376 12.677V11.5145C16.9376 11.3495 17.1176 11.252 17.2601 11.327C17.8451 11.642 18.2426 12.2645 18.2501 12.962C18.2501 13.6745 17.8526 14.297 17.2601 14.612C17.1926 14.6495 17.1476 14.7245 17.1476 14.7995V15.6133C17.2571 15.5773 17.3721 15.559 17.4926 15.5585C18.1121 15.5585 18.6176 16.064 18.6176 16.6835V18.0748L18.6228 18.1303ZM12.9701 11.9338C12.8566 11.8723 12.7416 11.814 12.6251 11.759V14.81C12.6251 15.4603 11.8991 15.8308 11.3741 15.4625L11.3591 15.4513L9.31608 13.6865C9.29772 13.6707 9.2743 13.6621 9.25008 13.6621C9.22586 13.6621 9.20245 13.6707 9.18408 13.6865L7.14108 15.4513L7.12608 15.4618C7.00704 15.5458 6.86716 15.5954 6.72179 15.6052C6.57642 15.6149 6.43116 15.5845 6.30195 15.5172C6.17273 15.4499 6.06455 15.3483 5.98925 15.2235C5.91395 15.0988 5.87445 14.9557 5.87508 14.81V11.756C5.76608 11.8075 5.65858 11.861 5.55258 11.9165V15.9425C5.55258 16.115 5.68758 16.25 5.86008 16.25H12.6626C12.8351 16.25 12.9701 16.115 12.9701 15.9425V11.9338ZM4.00008 12.9928C3.17041 13.731 2.50727 14.6373 2.05469 15.6515C1.60211 16.6656 1.37045 17.7645 1.37508 18.875V21.125H4.00008V12.9928ZM17.8676 17.1403V16.6835C17.8676 16.478 17.6981 16.3085 17.4926 16.3085C17.4189 16.3086 17.3469 16.3305 17.2855 16.3713C17.2241 16.4121 17.1762 16.4701 17.1476 16.538V17.141L17.8676 17.1403ZM15.1226 21.11H17.5976C17.6712 21.11 17.7418 21.0808 17.7938 21.0288C17.8458 20.9767 17.8751 20.9061 17.8751 20.8325V18.2015L17.8698 18.146C17.8573 18.083 17.8234 18.0263 17.7737 17.9855C17.7241 17.9448 17.6618 17.9225 17.5976 17.9225H15.1976C15.1729 17.9275 15.1478 17.9301 15.1226 17.93C15.0048 17.93 14.9223 18.0215 14.9201 18.1115V18.1168C14.9197 18.1489 14.9275 18.1806 14.9429 18.2089C14.9582 18.2371 14.9806 18.2609 15.0078 18.278C15.0595 18.3124 15.1018 18.3591 15.131 18.4139C15.1602 18.4687 15.1753 18.5299 15.175 18.592C15.1747 18.654 15.159 18.7151 15.1293 18.7696C15.0996 18.8241 15.0568 18.8704 15.0048 18.9043C14.9796 18.9208 14.9588 18.9431 14.944 18.9693C14.9293 18.9955 14.9211 19.0249 14.9201 19.055C14.9201 19.1225 14.9523 19.1728 14.9973 19.2013C15.051 19.2345 15.0954 19.2807 15.1265 19.3357C15.1576 19.3907 15.1742 19.4526 15.175 19.5157C15.1757 19.5788 15.1605 19.6411 15.1308 19.6968C15.101 19.7525 15.0577 19.7998 15.0048 19.8343C14.9796 19.8508 14.9588 19.8731 14.944 19.8993C14.9293 19.9255 14.9211 19.9549 14.9201 19.985C14.9201 20.0525 14.9523 20.1028 14.9973 20.1313C15.0507 20.1644 15.0949 20.2103 15.1259 20.2649C15.1569 20.3195 15.1737 20.381 15.1747 20.4438C15.1758 20.5066 15.161 20.5686 15.1319 20.6242C15.1027 20.6798 15.0601 20.7272 15.0078 20.762C14.9802 20.781 14.9577 20.8066 14.9424 20.8365C14.9271 20.8663 14.9194 20.8995 14.9201 20.933C14.9246 21.0215 15.0063 21.11 15.1226 21.11ZM7.38108 11.8985C7.1125 11.7939 6.85843 11.6552 6.62508 11.486V14.81C6.62608 14.8245 6.62808 14.8335 6.63108 14.837C6.63603 14.8429 6.64185 14.8479 6.64833 14.852C6.65552 14.8549 6.66311 14.8567 6.67083 14.8573C6.67433 14.8573 6.67933 14.856 6.68583 14.8535L8.54808 13.2455C8.25917 13.1321 8.00207 12.9502 7.79882 12.7156C7.59557 12.481 7.45223 12.2007 7.38108 11.8985ZM4.69008 6.94253C4.69008 7.42703 5.08308 7.82003 5.56758 7.82003L5.92983 7.81853L6.01608 9.13178C6.10343 9.75282 6.4118 10.3215 6.8846 10.7336C7.3574 11.1456 7.96293 11.3734 8.59008 11.375H10.0151C10.6423 11.3742 11.2482 11.1468 11.7211 10.7348C12.1941 10.3228 12.5023 9.75376 12.5891 9.13253L12.6693 7.84403L12.9918 7.81703C13.1601 7.80287 13.3206 7.74048 13.4543 7.63736C13.5879 7.53423 13.689 7.39474 13.7454 7.23562C13.8017 7.07649 13.811 6.90449 13.7721 6.74023C13.7331 6.57596 13.6476 6.42642 13.5258 6.30953C13.5017 6.29316 13.4795 6.27403 13.4598 6.25253C13.3539 6.17014 13.2309 6.11249 13.0998 6.08378L12.7833 6.01703L12.8036 5.68703C12.5535 5.74701 12.2904 5.71948 12.0581 5.60903L12.0446 5.62853C12.0112 5.67133 11.9623 5.69921 11.9085 5.7061C11.8547 5.71298 11.8004 5.69831 11.7573 5.66528H11.7566L11.8751 5.51228L11.7566 5.66453L11.7551 5.66378L11.7423 5.65478L11.6853 5.61803C11.3672 5.43249 10.9973 5.35561 10.6316 5.39903C10.5845 5.40456 10.537 5.39367 10.4971 5.3682C10.4571 5.34272 10.4272 5.30423 10.4124 5.25923C10.3976 5.21423 10.3987 5.1655 10.4157 5.12127C10.4327 5.07704 10.4645 5.04004 10.5056 5.01653C10.0933 4.92527 9.67231 4.87949 9.25008 4.88003C8.79033 4.88003 8.37258 4.93328 7.99983 5.01503C8.0416 5.03805 8.07407 5.07489 8.09165 5.11923C8.10924 5.16356 8.11086 5.21264 8.09623 5.25803C8.0816 5.30343 8.05163 5.34233 8.01147 5.36805C7.9713 5.39377 7.92344 5.40473 7.87608 5.39903C7.51039 5.35616 7.14066 5.433 6.82233 5.61803L6.76533 5.65478L6.75258 5.66378L6.75108 5.66528C6.72794 5.68312 6.70126 5.69582 6.67283 5.70253C6.64439 5.70924 6.61485 5.70981 6.58618 5.70421C6.5575 5.6986 6.53035 5.68694 6.50654 5.67001C6.48273 5.65308 6.4628 5.63127 6.44808 5.60603C6.23808 5.70728 6.00933 5.73803 5.79108 5.70503L5.81208 6.02903L5.45958 6.07178C5.33822 6.08751 5.22133 6.12783 5.11608 6.19028C5.07095 6.26862 4.99904 6.32801 4.91358 6.35753C4.77483 6.51278 4.69008 6.71753 4.69008 6.94253ZM6.43008 5.43803L6.35808 5.30753L6.43083 5.43653L6.43008 5.43803ZM8.59008 12.125C8.48508 12.125 8.38108 12.12 8.27808 12.11C8.38432 12.2686 8.52781 12.3987 8.696 12.489C8.86419 12.5793 9.05194 12.6269 9.24282 12.6278C9.4337 12.6287 9.62189 12.5828 9.7909 12.4941C9.95992 12.4054 10.1046 12.2766 10.2123 12.119C10.1466 12.1228 10.0809 12.1248 10.0151 12.125H8.59008ZM9.95133 13.2448L11.8151 14.8535L11.8293 14.8573C11.8371 14.8567 11.8446 14.8549 11.8518 14.852C11.8583 14.8479 11.8641 14.8429 11.8691 14.837C11.8727 14.8285 11.8748 14.8193 11.8751 14.81V11.561C11.6371 11.721 11.3808 11.8485 11.1063 11.9435C11.0288 12.2355 10.8839 12.5053 10.6833 12.7313C10.4828 12.9573 10.2321 13.1331 9.95133 13.2448ZM11.8736 3.69203C11.0552 3.31138 10.1635 3.11416 9.26096 3.11416C8.35838 3.11416 7.46671 3.31138 6.64833 3.69203L6.64533 3.69353C6.26234 3.8703 5.9061 4.10005 5.58708 4.37603L5.67108 4.48103C5.79108 4.62803 5.99808 4.66628 6.15708 4.57778L6.15858 4.57703C7.11113 4.05658 8.17963 3.78494 9.26508 3.78728C10.6886 3.78728 11.7633 4.24103 12.3716 4.57703H12.3731C12.4505 4.62035 12.5407 4.63486 12.6277 4.61797C12.7148 4.60108 12.793 4.55389 12.8486 4.48478L12.8501 4.48253L12.9356 4.37678C12.6133 4.10273 12.2562 3.87248 11.8736 3.69203ZM8.27508 18.305C8.27508 17.7725 7.84008 17.3375 7.30758 17.3375H6.22008C5.68758 17.3375 5.25258 17.7725 5.25258 18.305C5.25258 18.8375 5.68758 19.2725 6.22008 19.2725H7.30758C7.84758 19.2725 8.27508 18.845 8.27508 18.305Z" fill="white"/>
</svg>
